<svg width="24" height="24" viewBox="0 0 24 24" fill="none" xmlns="http://www.w3.org/2000/svg">
<g clip-path="url(#clip0_2220_131)">
<circle cx="12" cy="12" r="12" fill="#24292F"/>
<mask id="mask0_2220_131" style="mask-type:alpha" maskUnits="userSpaceOnUse" x="0" y="0" width="24" height="24">
<circle cx="12" cy="12" r="12" fill="#24292F"/>
</mask>
<g mask="url(#mask0_2220_131)">
<path d="M17.1777 43.6763C17.1847 43.6763 17.1917 43.6742 17.1969 43.6707C17.2504 43.6331 17.2565 43.5869 17.2552 43.5262C17.2243 41.9344 17.2387 40.8561 17.2552 39.0356C17.1416 35.2352 17.5917 31.4777 18.2559 27.7498C18.2559 27.7476 18.2568 27.745 18.2576 27.7428C18.3216 27.57 18.7321 27.3531 18.9005 27.2152C21.9787 24.7031 21.8473 20.3145 20.4984 16.903C20.1297 15.9704 19.6274 15.099 19.1761 14.2062C19.1691 14.1927 19.1717 14.1752 19.1839 14.1656C19.2566 14.1076 19.5325 14.0299 19.5996 14.0098C20.4801 13.748 21.5526 13.6123 22.377 13.2209C22.9089 12.9682 23.0369 12.7706 22.9916 12.1514C22.9916 12.1474 22.9907 12.1435 22.989 12.14C22.935 12.0348 22.1019 11.6866 21.9526 11.6076C21.2801 11.2524 20.5598 10.7113 19.9574 10.4177C19.4751 10.1825 18.8849 10.1611 18.4048 9.92631C18.3987 9.92325 18.3934 9.91845 18.3904 9.91278C17.9103 9.10026 17.5704 8.25807 17.2748 7.36177C17.1168 6.88307 17.001 6.33718 16.8487 5.82793C16.662 5.20306 15.8228 5.28117 15.8602 5.90037C15.8693 6.05354 16.0613 6.62911 16.05 6.82766C16.0487 6.85427 16.0165 6.86736 15.9956 6.85078C15.4589 6.4166 15.0236 5.80743 14.6967 5.19607C14.6197 5.05251 14.4852 4.79549 14.4312 4.66894C14.3146 4.39403 14.1527 3.61598 13.9241 3.48813C13.7822 3.40871 13.5006 3.39256 13.36 3.48027C13.0562 3.66922 13.2821 4.36916 13.3718 4.65061C13.6038 5.37586 14.0774 6.21412 14.5139 6.81631C14.6467 6.99915 14.8082 7.16541 14.9488 7.34083C14.9557 7.37443 14.9096 7.36701 14.8852 7.36133C14.5374 7.28235 14.0377 7.03188 13.7296 6.86344C12.3276 6.09761 11.3966 5.056 10.6936 3.70893C10.5221 3.38034 10.5234 3.01118 10.0599 3.00027C9.21632 2.98063 9.72558 4.04275 9.94234 4.4717C10.3654 5.30953 11.0301 6.06619 11.7169 6.6806C11.8754 6.82198 12.022 6.98213 12.1813 7.12482C12.2044 7.14577 12.1883 7.18417 12.1574 7.18286C11.7182 7.16366 11.2259 7.18504 10.8024 7.14009C10.3846 7.09558 9.76171 6.95857 9.3395 6.86344C8.72839 6.72598 8.73927 6.54358 8.49421 6.01121C8.3175 5.62764 8.18996 5.00102 7.92489 4.70778C7.73119 4.49352 7.245 4.58865 7.17754 4.82123C7.07612 5.1712 7.3277 5.6643 7.42085 5.99812C7.43695 6.05572 7.44784 6.12903 7.36514 6.09761C7.30115 6.07361 6.82715 5.74633 6.73792 5.68001C6.23954 5.30997 5.90787 4.94516 5.51613 4.4765C5.45128 4.39883 5.27935 4.18545 5.25018 4.1309C5.20753 4.05279 5.16313 4.01002 5.08304 3.89613C4.90023 3.63606 4.55594 3.56144 4.30348 3.76871C4.03449 3.98951 4.11849 4.19853 4.25604 4.46428C5.49045 6.85296 8.60433 8.00323 11.1032 8.19C12.1056 8.26505 13.1925 8.13327 14.1609 8.34927C15.3044 8.60411 16.423 9.24339 16.9727 10.3086C16.9828 10.3278 16.9714 10.3513 16.9505 10.3566C16.8848 10.3727 16.8026 10.4041 16.6863 10.4652C16.6855 10.4652 16.6846 10.4661 16.6837 10.4665L16.6358 10.4862C16.6184 10.4936 16.5993 10.4844 16.5919 10.467C16.5675 10.4076 16.5101 10.3526 16.4665 10.3138C16.1092 9.99569 15.7248 9.63438 15.2817 9.40441C14.3847 8.93924 12.5322 8.6316 11.5811 8.97633C11.1855 9.1199 11.3465 9.37997 11.491 9.67496C12.0721 10.8584 13.4014 11.7604 14.678 12.0152C14.9753 12.0745 15.283 12.0479 15.5686 12.15C15.5786 12.1535 15.5864 12.161 15.5895 12.171C15.636 12.3167 15.4685 13.0311 15.4685 13.2235C15.4685 13.5887 15.522 14.1949 15.5625 14.5714C15.7997 16.7642 17.0611 19.3466 14.1017 20.2233C11.6716 20.9433 8.89074 19.6735 6.31876 19.8284C3.89738 19.9741 1.18698 21.5978 0.137125 23.8294C0.0674823 23.9769 -0.00128804 24.2086 1.77363e-05 24.3727C1.77358e-05 24.378 0.000885928 24.3828 0.00306225 24.3871C0.0879389 24.5638 0.969786 24.6219 1.13997 24.5809C1.17175 24.573 1.26968 24.5477 1.30581 24.5377C1.41811 24.5062 1.4834 24.4853 1.61441 24.4395C1.75631 24.3897 1.96393 24.2012 2.17286 24.2689C2.18374 24.2724 2.19201 24.282 2.19462 24.2933C2.31606 24.8226 2.36133 25.3777 2.47798 25.9066C2.81792 27.4439 3.62751 28.9214 3.10345 30.5539C2.86275 31.3027 2.34392 32.0109 1.87165 32.6253C1.86991 32.6275 1.86817 32.6301 1.8673 32.6327C1.7994 32.7859 1.81376 32.9814 1.81986 33.1494C1.86338 34.3778 2.20855 35.7999 2.38222 37.0318C2.67515 39.1111 2.86058 41.3632 3.26842 43.4228C3.28496 43.5062 3.29192 43.603 3.3546 43.6659C3.36069 43.672 3.3694 43.675 3.37811 43.675L4.35136 43.675C4.37007 43.675 4.38531 43.6593 4.38487 43.6401C4.35484 42.89 4.30914 42.1373 4.2556 41.3867C4.10152 39.235 3.88824 37.0911 3.82338 34.9328C3.81206 34.5567 3.68889 34.1845 3.87257 33.8087C3.8939 33.7651 4.12676 33.4597 4.16724 33.416C4.20293 33.3776 4.48063 33.1267 4.51937 33.0866C6.5612 30.9789 8.58823 29.1121 8.90249 25.9502C8.94166 25.5548 8.8681 24.8287 8.95124 24.4805C8.95907 24.4478 8.96822 24.412 8.97649 24.3788C8.99433 24.3103 9.01087 24.2326 9.0779 24.23C9.0914 24.23 9.10445 24.2379 9.10968 24.2505C9.17671 24.4063 9.22241 24.57 9.24896 24.7388C9.56845 26.7714 9.08791 28.3315 8.05721 30.0049C7.55665 30.8179 7.05435 31.5191 6.39623 32.1763C6.33921 32.233 6.05803 32.5337 6.00101 32.5852C5.56836 32.9735 5.23756 33.3754 4.83624 33.7943C4.77095 33.8629 4.65387 34.0064 4.64299 34.0981C4.64212 34.1037 4.64299 34.1094 4.6456 34.1146L8.50727 43.6541C8.51249 43.6667 8.52468 43.675 8.53817 43.675L9.68727 43.675C9.70991 43.675 9.72601 43.6528 9.71905 43.6314C9.2655 42.2154 8.74101 40.8216 8.26744 39.4126C7.83565 38.1275 7.39125 36.852 6.9982 35.5416C6.84064 35.017 6.51941 34.1496 6.55859 33.625C6.59384 33.1498 7.27982 32.2352 7.561 31.8067C8.11118 30.9697 8.68529 30.1799 9.18498 29.2867C9.18541 29.2858 9.18585 29.2849 9.18628 29.284L9.92275 27.6983C9.92972 27.6834 9.94582 27.676 9.96149 27.68L11.3717 28.0574C11.3717 28.0574 11.3739 28.0578 11.3752 28.0583C12.6231 28.2499 13.8623 28.4165 15.1333 28.3742C15.1403 28.3742 15.1472 28.376 15.1533 28.3799L15.2339 28.4362C15.2421 28.4419 15.2473 28.4515 15.2482 28.4615L16.2075 43.6441C16.2088 43.6615 16.2232 43.6755 16.2406 43.6755L17.1769 43.6755L17.1777 43.6763ZM18.0505 11.8817C17.9547 11.7957 17.7684 11.6059 17.8824 11.5029C18.1375 11.2725 18.7212 11.2468 19.0342 11.3528C19.2104 11.4126 19.9713 11.9449 19.6548 12.1147C19.2056 12.356 18.4252 12.2181 18.0505 11.8817Z" fill="white"/>
</g>
</g>
<defs>
<clipPath id="clip0_2220_131">
<rect width="24" height="24" fill="white"/>
</clipPath>
</defs>
</svg>
