<svg width="200" height="200" viewBox="0 0 200 200" fill="none" xmlns="http://www.w3.org/2000/svg">
<g clip-path="url(#clip0_2220_113)">
<rect width="200" height="200" fill="white"/>
<path d="M127.154 200C127.188 200 127.221 199.99 127.246 199.973C127.502 199.793 127.531 199.571 127.525 199.28C127.377 191.649 127.446 186.48 127.525 177.752C126.982 159.534 129.134 141.52 132.311 123.649C132.311 123.639 132.315 123.626 132.319 123.615C132.625 122.787 134.588 121.747 135.394 121.086C150.116 109.043 149.487 88.0047 143.036 71.65C141.273 67.1795 138.87 63.002 136.712 58.7219C136.678 58.6571 136.691 58.5734 136.749 58.5273C137.097 58.2491 138.416 57.8768 138.737 57.7805C142.948 56.5254 148.078 55.8748 152.02 53.9983C154.564 52.7871 155.176 51.8395 154.96 48.871C154.96 48.8522 154.956 48.8334 154.947 48.8166C154.689 48.3125 150.705 46.6431 149.991 46.2645C146.775 44.5617 143.329 41.9677 140.448 40.5598C138.142 39.4323 135.319 39.3298 133.023 38.2043C132.994 38.1897 132.969 38.1667 132.954 38.1395C130.658 34.2443 129.032 30.2069 127.619 25.9101C126.863 23.6152 126.309 20.9982 125.581 18.557C124.688 15.5613 120.674 15.9358 120.853 18.9042C120.897 19.6385 121.815 22.3977 121.761 23.3496C121.755 23.4772 121.6 23.5399 121.501 23.4604C118.934 21.379 116.852 18.4586 115.289 15.5278C114.92 14.8396 114.277 13.6075 114.019 13.0008C113.461 11.6829 112.687 7.95299 111.594 7.34005C110.915 6.95932 109.568 6.88192 108.896 7.3024C107.443 8.2082 108.523 11.5637 108.952 12.9129C110.062 16.3897 112.326 20.4083 114.414 23.2952C115.049 24.1717 115.822 24.9687 116.494 25.8097C116.527 25.9707 116.307 25.9352 116.19 25.908C114.527 25.5293 112.137 24.3286 110.663 23.5211C103.958 19.8498 99.5053 14.8563 96.1433 8.39857C95.3232 6.82335 95.3294 5.05358 93.1124 5.00128C89.078 4.90715 91.5136 9.9989 92.5503 12.0553C94.5737 16.0718 97.7525 19.6991 101.037 22.6446C101.795 23.3224 102.497 24.0901 103.259 24.7742C103.369 24.8746 103.292 25.0586 103.144 25.0524C101.044 24.9603 98.6893 25.0628 96.6638 24.8474C94.6653 24.634 91.6864 23.9771 89.6672 23.5211C86.7445 22.8621 86.7965 21.9877 85.6245 19.4356C84.7793 17.5968 84.1694 14.5928 82.9016 13.187C81.9753 12.1598 79.65 12.6159 79.3274 13.7309C78.8423 15.4086 80.0455 17.7725 80.491 19.3728C80.568 19.6489 80.6201 20.0004 80.2246 19.8498C79.9186 19.7347 77.6516 18.1658 77.2248 17.8478C74.8413 16.0738 73.255 14.325 71.3815 12.0783C71.0713 11.7059 70.2491 10.683 70.1096 10.4215C69.9056 10.047 69.6932 9.842 69.3102 9.29601C68.4359 8.04922 66.7893 7.69149 65.5819 8.68516C64.2954 9.74367 64.6972 10.7457 65.355 12.0197C71.2587 23.4709 86.1512 28.9852 98.1022 29.8805C102.896 30.2403 108.094 29.6086 112.726 30.6441C118.195 31.8658 123.545 34.9304 126.174 40.0368C126.222 40.1289 126.168 40.2418 126.068 40.2669C125.753 40.3443 125.36 40.495 124.804 40.7878C124.8 40.7878 124.796 40.792 124.792 40.7941L124.563 40.8882C124.479 40.9238 124.388 40.8799 124.352 40.7962C124.236 40.5117 123.961 40.2481 123.753 40.0619C122.044 38.5369 120.206 36.8048 118.087 35.7024C113.796 33.4724 104.936 31.9976 100.388 33.6502C98.4957 34.3384 99.2659 35.5852 99.957 36.9994C102.736 42.6727 109.094 46.9967 115.199 48.2184C116.621 48.5029 118.093 48.3752 119.458 48.8647C119.506 48.8815 119.544 48.9171 119.558 48.9652C119.781 49.6639 118.98 53.0884 118.98 54.0109C118.98 55.7618 119.236 58.6675 119.429 60.4728C120.564 70.9848 126.597 83.3648 112.443 87.5674C100.821 91.0191 87.5209 84.9316 75.2202 85.6743C63.6396 86.373 50.6769 94.157 45.6558 104.855C45.3227 105.562 44.9938 106.673 45.0001 107.46C45.0001 107.485 45.0042 107.508 45.0147 107.529C45.4206 108.376 49.6381 108.654 50.4521 108.457C50.604 108.42 51.0724 108.298 51.2452 108.25C51.7823 108.1 52.0945 107.999 52.7211 107.78C53.3997 107.541 54.3927 106.637 55.3919 106.962C55.444 106.978 55.4835 107.024 55.496 107.079C56.0768 109.616 56.2933 112.277 56.8512 114.813C58.477 122.183 62.349 129.266 59.8426 137.092C58.6914 140.681 56.21 144.077 53.9514 147.022C53.9431 147.032 53.9347 147.045 53.9306 147.058C53.6058 147.792 53.6745 148.729 53.7037 149.534C53.9118 155.423 55.5626 162.241 56.3932 168.146C57.7942 178.114 58.681 188.911 60.6316 198.785C60.7107 199.184 60.744 199.649 61.0438 199.95C61.0729 199.979 61.1145 199.994 61.1562 199.994L65.8108 199.994C65.9004 199.994 65.9732 199.918 65.9711 199.826C65.8275 196.23 65.6089 192.622 65.3529 189.024C64.6159 178.708 63.5959 168.431 63.2857 158.084C63.2316 156.281 62.6425 154.496 63.521 152.695C63.623 152.486 64.7367 151.022 64.9303 150.813C65.101 150.629 66.4291 149.426 66.6144 149.233C76.3797 139.129 86.0741 130.18 87.5771 115.022C87.7645 113.127 87.4127 109.646 87.8103 107.976C87.8478 107.819 87.8915 107.648 87.931 107.489C88.0164 107.16 88.0955 106.788 88.4161 106.775C88.4806 106.775 88.543 106.813 88.568 106.874C88.8886 107.621 89.1072 108.405 89.2342 109.215C90.7621 118.959 88.4639 126.437 83.5345 134.46C81.1405 138.357 78.7382 141.719 75.5907 144.869C75.318 145.141 73.9732 146.583 73.7005 146.83C71.6313 148.691 70.0492 150.618 68.1299 152.626C67.8176 152.955 67.2576 153.643 67.2056 154.082C67.2014 154.109 67.2056 154.137 67.2181 154.162L85.6869 199.893C85.7119 199.954 85.7702 199.994 85.8347 199.994L91.3304 199.994C91.4387 199.994 91.5157 199.887 91.4824 199.785C89.3133 192.996 86.8048 186.315 84.5399 179.56C82.4749 173.399 80.3495 167.284 78.4697 161.002C77.7161 158.488 76.1798 154.329 76.3672 151.815C76.5358 149.537 79.8165 145.152 81.1613 143.098C83.7926 139.085 86.5384 135.299 88.9282 131.017C88.9302 131.013 88.9323 131.008 88.9344 131.004L92.4566 123.402C92.4899 123.331 92.567 123.295 92.6419 123.314L99.3866 125.124C99.3866 125.124 99.397 125.126 99.4033 125.128C105.372 126.046 111.298 126.845 117.377 126.642C117.41 126.642 117.443 126.651 117.472 126.67L117.858 126.94C117.897 126.967 117.922 127.013 117.926 127.061L122.514 199.845C122.521 199.929 122.589 199.996 122.673 199.996L127.15 199.996L127.154 200ZM131.328 47.5782C130.87 47.1661 129.979 46.2561 130.525 45.7624C131.745 44.6579 134.536 44.5345 136.033 45.0428C136.876 45.3294 140.515 47.8815 139.001 48.6953C136.853 49.8521 133.121 49.1911 131.328 47.5782Z" fill="#0064FF"/>
</g>
<defs>
<clipPath id="clip0_2220_113">
<rect width="200" height="200" fill="white"/>
</clipPath>
</defs>
</svg>
