<svg width="200" height="200" viewBox="0 0 200 200" fill="none" xmlns="http://www.w3.org/2000/svg">
<rect width="200" height="200" fill="white"/>
<path d="M126.238 195C126.27 195 126.303 194.99 126.327 194.973C126.577 194.798 126.605 194.582 126.599 194.299C126.455 186.863 126.522 181.827 126.599 173.323C126.069 155.571 128.171 138.02 131.274 120.607C131.274 120.596 131.278 120.584 131.282 120.574C131.581 119.767 133.498 118.754 134.285 118.11C148.663 106.375 148.049 85.8763 141.748 69.941C140.026 65.5852 137.68 61.5147 135.572 57.3444C135.539 57.2812 135.551 57.1997 135.608 57.1548C135.948 56.8838 137.237 56.5209 137.55 56.4272C141.663 55.2042 146.673 54.5703 150.523 52.742C153.008 51.5618 153.605 50.6385 153.394 47.7461C153.394 47.7278 153.39 47.7094 153.382 47.6931C153.13 47.2019 149.238 45.5754 148.541 45.2064C145.4 43.5473 142.035 41.0198 139.221 39.648C136.968 38.5494 134.211 38.4495 131.969 37.3529C131.94 37.3386 131.916 37.3162 131.902 37.2897C129.659 33.4944 128.071 29.5605 126.691 25.3739C125.953 23.1379 125.412 20.588 124.7 18.2093C123.828 15.2905 119.908 15.6554 120.083 18.5477C120.126 19.2631 121.023 21.9516 120.97 22.8791C120.964 23.0034 120.813 23.0645 120.716 22.9871C118.209 20.959 116.176 18.1135 114.649 15.2579C114.289 14.5873 113.661 13.3868 113.408 12.7957C112.864 11.5115 112.107 7.87727 111.04 7.28005C110.377 6.90908 109.062 6.83367 108.405 7.24336C106.986 8.12594 108.041 11.3954 108.46 12.71C109.543 16.0977 111.756 20.0132 113.795 22.8261C114.415 23.6801 115.169 24.4567 115.826 25.2761C115.858 25.433 115.643 25.3984 115.529 25.3719C113.905 25.0029 111.571 23.833 110.131 23.0462C103.582 19.469 99.2335 14.6036 95.95 8.31142C95.1489 6.77659 95.155 5.05221 92.9897 5.00125C89.0495 4.90953 91.4283 9.87072 92.4408 11.8744C94.417 15.7879 97.5216 19.3222 100.73 22.1922C101.47 22.8526 102.155 23.6006 102.899 24.2671C103.007 24.365 102.932 24.5443 102.787 24.5382C100.736 24.4485 98.4365 24.5484 96.4582 24.3385C94.5064 24.1306 91.597 23.4905 89.6249 23.0462C86.7704 22.4041 86.8212 21.5521 85.6765 19.0654C84.8511 17.2738 84.2554 14.3468 83.0172 12.9771C82.1125 11.9763 79.8415 12.4206 79.5263 13.507C79.0526 15.1417 80.2278 17.445 80.6628 19.0043C80.7381 19.2733 80.7889 19.6157 80.4026 19.469C80.1037 19.3569 77.8897 17.8282 77.4729 17.5184C75.1449 15.7899 73.5957 14.0859 71.7659 11.8968C71.4629 11.534 70.6598 10.5372 70.5236 10.2825C70.3244 9.9176 70.117 9.71784 69.7429 9.18585C68.889 7.97103 67.2808 7.62248 66.1016 8.59066C64.8451 9.62204 65.2375 10.5984 65.88 11.8397C71.6459 22.9973 86.1909 28.3702 97.8631 29.2426C102.545 29.5932 107.622 28.9776 112.146 29.9866C117.487 31.1769 122.712 34.163 125.28 39.1384C125.327 39.2281 125.274 39.3382 125.176 39.3627C124.869 39.4381 124.485 39.5848 123.942 39.8702C123.938 39.8702 123.934 39.8743 123.93 39.8763L123.706 39.968C123.625 40.0027 123.535 39.9599 123.501 39.8783C123.387 39.6011 123.119 39.3443 122.915 39.1629C121.246 37.677 119.451 35.9893 117.381 34.9151C113.191 32.7423 104.538 31.3053 100.096 32.9156C98.2474 33.5862 98.9997 34.801 99.6747 36.1789C102.389 41.7067 108.598 45.9198 114.561 47.1102C115.95 47.3874 117.387 47.263 118.721 47.74C118.768 47.7563 118.804 47.791 118.819 47.8379C119.036 48.5186 118.253 51.8553 118.253 52.7542C118.253 54.4602 118.503 57.2914 118.693 59.0504C119.801 69.2928 125.693 81.3554 111.869 85.4503C100.518 88.8135 87.5287 82.8821 75.515 83.6057C64.2046 84.2865 51.5443 91.8709 46.6404 102.295C46.3151 102.984 45.9939 104.066 46 104.832C46 104.857 46.0041 104.879 46.0142 104.9C46.4107 105.725 50.5298 105.996 51.3248 105.805C51.4732 105.768 51.9306 105.65 52.0994 105.603C52.6239 105.456 52.9289 105.358 53.5409 105.144C54.2037 104.912 55.1735 104.031 56.1494 104.347C56.2002 104.364 56.2388 104.408 56.251 104.461C56.8183 106.934 57.0297 109.527 57.5746 111.997C59.1625 119.178 62.9441 126.079 60.4962 133.705C59.3719 137.202 56.9484 140.511 54.7424 143.38C54.7343 143.391 54.7262 143.403 54.7221 143.415C54.4049 144.13 54.472 145.044 54.5005 145.828C54.7038 151.566 56.3161 158.209 57.1273 163.963C58.4956 173.675 59.3617 184.195 61.2668 193.816C61.344 194.205 61.3766 194.658 61.6693 194.951C61.6978 194.98 61.7385 194.994 61.7791 194.994L66.3252 194.994C66.4126 194.994 66.4838 194.92 66.4817 194.831C66.3415 191.327 66.128 187.811 65.8779 184.305C65.1582 174.254 64.1619 164.24 63.859 154.159C63.8061 152.402 63.2308 150.663 64.0888 148.908C64.1884 148.704 65.2761 147.278 65.4652 147.074C65.6319 146.894 66.929 145.722 67.11 145.535C76.6474 135.69 86.1157 126.97 87.5836 112.201C87.7666 110.354 87.423 106.962 87.8113 105.336C87.8479 105.183 87.8906 105.016 87.9293 104.861C88.0126 104.541 88.0899 104.178 88.403 104.166C88.466 104.166 88.527 104.203 88.5514 104.262C88.8645 104.989 89.078 105.754 89.202 106.542C90.6943 116.037 88.4497 123.324 83.6353 131.141C81.2972 134.938 78.9509 138.213 75.8768 141.283C75.6105 141.548 74.2971 142.952 74.0308 143.193C72.0098 145.007 70.4647 146.884 68.5901 148.841C68.2851 149.161 67.7382 149.832 67.6874 150.26C67.6833 150.286 67.6874 150.313 67.6996 150.337L85.7375 194.896C85.7619 194.955 85.8189 194.994 85.8819 194.994L91.2493 194.994C91.3551 194.994 91.4303 194.89 91.3978 194.79C89.2792 188.176 86.8293 181.666 84.6173 175.084C82.6004 169.081 80.5246 163.123 78.6887 157.002C77.9527 154.552 76.4522 150.5 76.6352 148.05C76.7999 145.83 80.0041 141.558 81.3175 139.557C83.8874 135.647 86.5691 131.958 88.9031 127.785C88.9051 127.781 88.9072 127.777 88.9092 127.773L92.3493 120.366C92.3818 120.297 92.457 120.262 92.5302 120.281L99.1176 122.044C99.1176 122.044 99.1277 122.046 99.1338 122.048C104.963 122.943 110.751 123.721 116.688 123.523C116.72 123.523 116.753 123.532 116.781 123.55L117.158 123.813C117.196 123.839 117.221 123.884 117.225 123.931L121.706 194.849C121.712 194.931 121.779 194.996 121.86 194.996L126.233 194.996L126.238 195ZM130.314 46.4865C129.867 46.0849 128.996 45.1983 129.529 44.7172C130.721 43.641 133.447 43.5208 134.909 44.0161C135.732 44.2953 139.286 46.782 137.808 47.5749C135.71 48.7021 132.064 48.058 130.314 46.4865Z" fill="#0064FF"/>
<path d="M137.349 194.999C137.546 194.133 137.835 193.063 138.154 192.243C143.088 179.579 147.585 166.761 152.463 154.07C152.682 153.498 152.9 152.75 153.048 152.201C153.406 150.87 153.256 147.615 152.66 146.351C151.385 143.649 148.551 140 146.929 137.236C143.645 131.643 140.63 125.871 137.042 120.471C136.834 120.422 134.539 122.677 134.303 123.015C133.191 124.613 133.166 127.483 132.977 129.417C132.839 130.82 132.705 132.34 132.703 133.83C132.703 135.208 134.333 136.5 135.212 137.591C138.005 141.06 141.691 144.617 144.334 148.188C145.097 149.217 145.935 150.151 145.68 151.533C141.632 164.631 137.735 177.996 133.51 190.88L132.479 194.999L137.353 194.999L137.349 194.999Z" fill="#0064FF"/>
</svg>
